<?xml version="1.0" standalone="no"?>
<!DOCTYPE svg PUBLIC "-//W3C//DTD SVG 20010904//EN"
 "http://www.w3.org/TR/2001/REC-SVG-20010904/DTD/svg10.dtd">
<svg version="1.0" xmlns="http://www.w3.org/2000/svg"
 width="3333.000000pt" height="3333.000000pt" viewBox="0 0 3333.000000 3333.000000"
 preserveAspectRatio="xMidYMid meet">
<metadata>
Created by potrace 1.14, written by Peter Selinger 2001-2017
</metadata>
<g transform="translate(0.000000,3333.000000) scale(0.100000,-0.100000)"
fill="#000000" stroke="none">
<path d="M10696 30596 c-18 -39 -41 -93 -51 -121 -10 -27 -22 -54 -26 -60 -11
-15 -135 -390 -159 -480 -35 -129 -49 -188 -54 -220 -3 -16 -14 -73 -25 -125
-11 -52 -22 -119 -26 -149 -4 -30 -8 -61 -10 -70 -1 -9 -6 -45 -10 -81 -4 -36
-9 -78 -11 -95 -22 -161 -22 -723 0 -855 3 -14 7 -50 10 -80 13 -112 17 -146
26 -195 6 -27 12 -67 15 -89 2 -21 7 -46 9 -55 3 -9 8 -29 11 -46 6 -35 8 -47
29 -135 56 -244 119 -446 218 -695 69 -174 177 -400 257 -539 28 -49 51 -91
51 -93 0 -5 36 -62 148 -233 213 -326 472 -627 783 -911 51 -46 97 -89 103
-94 17 -16 247 -198 286 -226 353 -257 746 -469 1165 -629 125 -47 411 -140
433 -140 36 0 43 -14 33 -66 -5 -27 -12 -69 -16 -94 -4 -24 -9 -48 -11 -52 -3
-4 -7 -27 -9 -50 -3 -24 -8 -56 -11 -73 -4 -16 -8 -41 -10 -55 -3 -28 -17
-122 -19 -130 -1 -3 -5 -32 -10 -65 -4 -33 -9 -67 -10 -75 -2 -8 -6 -44 -10
-80 -11 -106 -5 -101 -88 -78 -40 10 -99 26 -132 34 -33 8 -172 53 -310 100
-137 46 -254 86 -260 88 -5 1 -17 6 -25 9 -8 4 -73 29 -145 56 -130 50 -404
160 -460 185 -16 8 -70 30 -120 50 -49 20 -99 41 -110 45 -106 47 -471 179
-685 249 -304 99 -686 202 -914 246 -169 33 -357 67 -389 71 -23 3 -49 7 -57
10 -8 2 -40 6 -70 10 -30 3 -64 7 -75 9 -38 7 -110 15 -180 21 -38 4 -80 8
-92 10 -125 20 -739 27 -998 12 -77 -5 -142 -10 -145 -12 -3 -2 -38 -6 -78
-10 -39 -3 -80 -8 -90 -10 -10 -1 -45 -6 -77 -10 -33 -4 -69 -9 -80 -11 -11
-3 -36 -7 -55 -10 -80 -12 -100 -16 -195 -35 -642 -131 -1265 -388 -1812 -746
-80 -52 -243 -165 -268 -185 -5 -5 -55 -43 -110 -86 -55 -42 -111 -87 -125
-99 -14 -11 -47 -40 -75 -63 -187 -158 -451 -420 -635 -630 -98 -112 -115
-133 -212 -255 -473 -597 -895 -1337 -1199 -2105 -27 -69 -54 -134 -59 -145
-41 -88 -201 -560 -282 -830 -79 -267 -221 -830 -241 -960 -3 -16 -8 -37 -11
-45 -3 -8 -7 -28 -10 -45 -7 -40 -24 -134 -31 -165 -4 -23 -60 -350 -70 -410
-2 -14 -7 -47 -11 -75 -3 -27 -8 -59 -11 -70 -2 -11 -6 -40 -9 -65 -3 -25 -9
-74 -14 -110 -5 -36 -12 -90 -15 -120 -4 -30 -8 -66 -10 -80 -2 -14 -7 -56
-10 -95 -3 -38 -8 -86 -10 -105 -2 -19 -7 -64 -10 -100 -3 -36 -8 -85 -10
-110 -2 -25 -7 -88 -11 -140 -3 -52 -7 -111 -9 -130 -26 -275 -26 -1303 0
-1620 2 -25 6 -88 10 -140 8 -116 11 -159 19 -241 4 -35 9 -86 12 -114 2 -27
7 -67 10 -89 4 -21 7 -50 8 -65 8 -86 18 -172 26 -216 5 -27 11 -68 14 -90 4
-35 20 -139 30 -200 2 -11 7 -40 11 -65 4 -25 9 -54 11 -65 3 -11 11 -60 20
-110 9 -49 17 -92 19 -95 2 -3 6 -26 10 -50 3 -25 13 -74 21 -110 8 -36 19
-83 24 -105 22 -95 61 -263 71 -300 5 -22 12 -49 14 -60 3 -11 17 -65 31 -120
14 -55 29 -116 34 -135 39 -161 214 -783 244 -868 8 -23 15 -46 16 -50 1 -20
132 -429 234 -727 150 -442 375 -1024 564 -1460 97 -224 121 -276 196 -438 20
-42 52 -112 72 -155 166 -355 436 -865 659 -1242 53 -91 105 -178 115 -195
156 -267 502 -780 745 -1105 114 -153 328 -424 354 -451 9 -8 30 -32 46 -54
17 -21 35 -43 40 -49 6 -6 37 -43 69 -81 33 -39 64 -74 70 -80 6 -5 26 -28 45
-50 134 -159 621 -655 816 -832 249 -225 553 -473 815 -663 91 -66 170 -125
177 -130 7 -6 97 -66 200 -134 346 -227 635 -392 1010 -577 122 -60 224 -109
227 -109 2 0 40 -16 83 -36 43 -20 98 -44 123 -54 25 -10 63 -26 85 -36 22
-10 42 -18 45 -19 3 0 64 -24 135 -52 198 -78 451 -147 615 -168 25 -3 52 -8
60 -10 80 -20 478 -33 660 -21 83 5 198 16 230 21 14 3 45 7 70 10 51 7 70 10
155 24 295 50 644 138 1115 281 74 22 144 43 154 45 11 3 40 11 65 19 120 39
484 140 551 152 14 3 50 11 80 19 30 8 69 16 85 19 17 3 41 8 55 11 24 5 106
19 180 30 19 3 51 8 70 11 19 2 116 7 215 9 173 3 286 -5 440 -34 33 -6 74
-14 90 -17 17 -3 58 -11 93 -19 34 -8 76 -17 94 -20 17 -3 34 -8 38 -10 4 -2
45 -13 91 -24 46 -11 152 -38 234 -61 83 -22 173 -47 201 -55 27 -8 156 -43
285 -79 506 -141 891 -233 1129 -273 19 -3 40 -6 45 -7 9 -3 42 -8 145 -22 65
-10 85 -12 155 -19 39 -3 88 -8 110 -10 47 -5 363 -5 420 -1 38 3 95 11 175
22 29 4 152 26 225 40 11 2 72 17 135 34 63 17 122 32 131 34 58 15 243 75
354 116 381 139 841 362 1203 581 64 40 126 77 137 83 125 72 641 429 785 544
14 11 75 59 135 107 61 48 132 106 159 129 132 110 265 224 306 261 162 148
203 186 268 250 411 394 770 785 1107 1205 120 150 376 489 445 590 25 36 47
67 50 70 23 23 293 430 404 610 60 96 130 208 155 249 l46 73 2695 2 2695 2
99 27 c364 99 623 358 724 726 l27 96 0 4145 0 4145 -23 89 c-102 403 -419
693 -834 762 -24 4 -772 8 -1663 9 -891 2 -1625 3 -1631 4 -5 0 -16 43 -23 94
-7 50 -15 101 -17 112 -2 11 -6 35 -9 54 -2 18 -6 41 -9 50 -3 9 -7 36 -10 61
-3 25 -8 56 -11 70 -3 14 -8 39 -10 55 -3 17 -17 89 -31 160 -14 72 -28 144
-30 160 -8 51 -123 556 -143 630 -11 39 -31 115 -46 170 -48 182 -67 246 -156
525 -29 91 -53 167 -54 170 0 3 -9 28 -19 55 -10 28 -34 93 -53 145 -50 137
-151 396 -179 458 -13 29 -24 55 -24 58 0 3 -9 24 -19 47 -10 23 -40 89 -66
147 -202 450 -427 848 -740 1305 -52 76 -178 242 -274 360 -178 220 -219 264
-446 490 -644 642 -1365 1070 -2221 1318 -203 59 -553 132 -729 152 -33 4 -68
9 -78 11 -10 2 -48 6 -85 9 -37 4 -85 9 -107 11 -224 24 -836 24 -1050 -1 -22
-2 -67 -7 -100 -10 -74 -6 -119 -11 -265 -31 -99 -13 -153 -21 -325 -50 -16
-3 -95 -19 -175 -35 -80 -17 -156 -32 -170 -35 -48 -10 -336 -83 -440 -112
-275 -78 -500 -152 -840 -277 -59 -21 -393 -155 -425 -170 -16 -7 -48 -20 -70
-28 -37 -14 -215 -83 -260 -102 -11 -5 -22 -9 -25 -10 -15 -5 -48 -18 -65 -25
-100 -44 -524 -184 -720 -239 -82 -24 -156 -44 -163 -47 -9 -3 -11 5 -8 29 3
17 15 91 27 162 87 546 234 1047 418 1428 154 318 313 542 555 782 321 319
712 547 1225 714 112 37 407 116 471 127 14 3 59 12 100 20 41 9 86 18 100 20
14 2 36 7 50 9 14 3 43 7 65 11 146 21 345 111 464 210 160 133 294 343 337
527 46 193 38 395 -22 574 -107 324 -397 585 -724 652 -30 6 -66 14 -80 17
-32 6 -245 6 -285 0 -16 -3 -40 -7 -52 -10 -11 -2 -43 -8 -70 -12 -26 -5 -50
-9 -53 -9 -3 -1 -25 -5 -50 -9 -97 -17 -412 -90 -550 -128 -879 -241 -1657
-656 -2215 -1181 -69 -65 -82 -69 -89 -31 -7 30 -80 241 -115 329 -74 185
-195 439 -278 585 -230 403 -463 710 -783 1031 -187 187 -303 290 -495 439
-473 366 -1080 667 -1670 829 -180 50 -340 84 -532 116 -74 12 -90 14 -143 20
-30 3 -72 8 -94 11 -21 4 -55 7 -75 9 -150 11 -266 17 -390 19 l-143 3 -32
-71z m-1221 -7951 c50 -4 97 -9 105 -10 9 -2 43 -6 75 -10 33 -4 69 -9 80 -11
11 -2 45 -8 75 -14 85 -15 109 -19 200 -41 47 -11 93 -22 103 -24 94 -20 470
-141 662 -213 128 -48 412 -162 650 -262 548 -229 898 -359 1340 -498 185 -58
480 -142 548 -156 12 -3 90 -21 172 -40 83 -20 161 -38 174 -41 14 -2 47 -9
75 -14 64 -13 82 -16 236 -41 145 -23 174 -27 255 -36 33 -3 89 -9 124 -13 35
-4 186 -7 335 -5 302 2 435 9 621 29 22 2 86 9 142 15 56 6 110 12 120 14 10
2 38 7 63 10 25 3 54 8 65 10 11 2 42 7 68 10 27 4 56 9 65 11 25 5 223 45
252 51 14 3 90 21 170 40 80 20 152 37 160 39 142 33 656 201 900 295 201 76
316 121 335 130 72 33 782 319 930 375 99 37 194 73 210 80 17 7 116 41 220
75 243 79 549 157 691 176 27 3 51 8 54 9 3 2 34 6 69 10 34 4 72 8 83 10 126
25 652 25 798 1 14 -3 48 -7 75 -11 28 -3 75 -10 105 -15 30 -5 73 -12 95 -16
63 -9 253 -53 330 -75 373 -108 709 -278 1031 -520 512 -387 982 -989 1344
-1724 89 -181 220 -470 220 -486 0 -5 11 -32 24 -61 14 -29 36 -84 50 -123 14
-38 46 -126 71 -195 43 -115 161 -480 170 -524 3 -10 9 -33 15 -50 57 -177
195 -768 244 -1051 3 -16 8 -42 11 -56 4 -17 1 -28 -7 -31 -11 -3 -19592 -3
-19624 1 -10 1 2 79 36 221 6 25 13 59 16 75 2 17 11 57 20 90 8 33 16 69 18
80 11 56 73 290 121 455 306 1059 756 1958 1338 2673 143 175 368 410 517 537
41 36 77 67 80 70 8 9 143 114 180 141 354 259 691 422 1085 524 153 39 346
77 465 91 30 3 63 8 73 10 10 2 60 6 110 10 51 3 93 7 94 8 6 6 388 -2 468 -9z
m19130 -6985 l60 0 0 -2997 0 -2998 -1498 0 -1497 0 -1 40 c0 22 0 265 -1 541
0 515 -4 573 -43 709 -41 140 -119 274 -229 392 -60 64 -192 173 -211 173 -4
0 -19 8 -33 18 -58 40 -189 86 -337 118 -70 15 -295 5 -380 -18 -22 -5 -42
-10 -45 -10 -12 0 -130 -48 -176 -71 -186 -94 -350 -261 -448 -454 -32 -64
-73 -187 -81 -245 -3 -24 -9 -52 -12 -63 -4 -11 -7 -270 -8 -575 l0 -555
-1498 0 -1497 0 -1 30 c0 16 -1 710 -1 1541 -1 1632 1 1582 -54 1749 -92 282
-323 517 -604 618 -122 44 -207 59 -330 60 -171 1 -298 -27 -447 -99 -242
-116 -430 -327 -513 -575 -55 -162 -53 -90 -54 -1761 -1 -850 -5 -1550 -9
-1555 -5 -4 -679 -8 -1498 -8 l-1489 0 0 25 c0 14 -2 268 -4 565 -1 297 -5
549 -8 560 -3 11 -8 37 -12 58 -17 95 -72 231 -130 322 -159 248 -411 413
-706 461 -50 9 -216 8 -275 0 -264 -38 -485 -164 -658 -376 -87 -106 -178
-309 -193 -429 -3 -25 -8 -50 -12 -55 -3 -6 -6 -259 -7 -563 0 -303 -4 -555
-9 -560 -4 -4 -678 -8 -1497 -8 -1317 0 -1489 2 -1489 15 -1 8 -2 713 -3 1565
-2 1451 -4 1555 -21 1630 -92 410 -430 723 -844 781 -106 15 -287 5 -377 -20
-104 -30 -124 -37 -195 -72 -67 -32 -132 -72 -184 -114 -29 -22 -137 -130
-164 -163 -72 -88 -149 -240 -177 -347 -18 -68 -18 -69 -31 -140 -4 -25 -8
-740 -8 -1590 l-1 -1545 -1205 0 c-663 -1 -1212 1 -1220 3 -8 2 -31 38 -50 80
-19 42 -53 118 -76 167 -103 223 -250 571 -359 850 -36 94 -70 179 -74 190
-26 62 -48 121 -117 315 -42 118 -80 224 -85 235 -4 11 -45 133 -89 270 -102
311 -113 348 -116 360 -4 17 -66 229 -72 245 -3 8 -6 20 -8 25 -1 6 -14 51
-29 100 -23 80 -109 398 -121 450 -3 17 -21 87 -38 155 -8 30 -116 516 -120
540 -3 14 -12 63 -21 110 -20 98 -18 88 -45 245 -11 66 -23 136 -26 155 -3 19
-9 58 -14 85 -5 28 -12 75 -15 105 -3 30 -8 62 -10 70 -2 8 -7 40 -10 70 -3
30 -8 66 -10 80 -2 14 -7 53 -10 87 -4 35 -9 74 -10 88 -2 14 -6 58 -10 98 -3
40 -8 88 -10 107 -4 32 -7 69 -20 265 -8 115 -16 435 -12 442 4 6 23266 9
23942 3z m-6589 -8002 c3 -4 -48 -79 -84 -123 -4 -5 -21 -28 -37 -50 -81 -109
-422 -524 -474 -576 -9 -9 -50 -54 -91 -100 -102 -115 -525 -537 -635 -635
-49 -43 -92 -82 -95 -85 -3 -3 -76 -65 -162 -137 -308 -257 -674 -516 -1016
-720 -84 -51 -157 -92 -160 -92 -4 0 -24 -11 -45 -25 -20 -14 -37 -23 -37 -20
0 3 -17 -5 -37 -18 -147 -93 -751 -359 -878 -387 -90 -20 -108 -22 -250 -25
-138 -3 -254 7 -375 30 -14 3 -41 8 -60 11 -150 27 -348 80 -805 216 -165 49
-307 91 -315 93 -8 1 -78 21 -155 43 -283 82 -556 147 -780 186 -16 3 -39 8
-50 10 -41 8 -114 18 -205 30 -156 19 -235 27 -315 32 -97 5 -469 5 -530 -1
-27 -2 -84 -7 -125 -11 -125 -11 -134 -12 -165 -17 -16 -3 -52 -8 -80 -12 -96
-12 -424 -74 -525 -99 -8 -2 -53 -14 -100 -26 -47 -12 -96 -24 -109 -26 -41
-8 -228 -61 -406 -114 -93 -28 -179 -53 -190 -55 -11 -3 -31 -9 -45 -14 -91
-35 -622 -181 -780 -215 -112 -24 -131 -27 -235 -42 -27 -3 -59 -9 -70 -11
-11 -2 -85 -6 -165 -8 -162 -4 -264 9 -381 48 -273 92 -835 365 -1113 540 -11
7 -69 43 -130 81 -567 351 -1195 885 -1676 1422 -93 105 -119 134 -165 188
-27 33 -55 64 -60 70 -45 47 -215 262 -382 483 l-122 162 62 3 c99 5 14548 0
14553 -4z"/>
</g>
</svg>
